<?xml version="1.0" encoding="utf-8" standalone="no"?>
<!DOCTYPE svg PUBLIC "-//W3C//DTD SVG 1.1//EN"
  "http://www.w3.org/Graphics/SVG/1.1/DTD/svg11.dtd">
<svg xmlns:xlink="http://www.w3.org/1999/xlink" width="381.785756pt" height="210.538317pt" viewBox="0 0 381.785756 210.538317" xmlns="http://www.w3.org/2000/svg" version="1.1">
 <metadata>
  <rdf:RDF xmlns:dc="http://purl.org/dc/elements/1.1/" xmlns:cc="http://creativecommons.org/ns#" xmlns:rdf="http://www.w3.org/1999/02/22-rdf-syntax-ns#">
   <cc:Work>
    <dc:type rdf:resource="http://purl.org/dc/dcmitype/StillImage"/>
    <dc:date>2023-03-01T16:17:17.901973</dc:date>
    <dc:format>image/svg+xml</dc:format>
    <dc:creator>
     <cc:Agent>
      <dc:title>Matplotlib v3.6.1, https://matplotlib.org/</dc:title>
     </cc:Agent>
    </dc:creator>
   </cc:Work>
  </rdf:RDF>
 </metadata>
 <defs>
  <style type="text/css">*{stroke-linejoin: round; stroke-linecap: butt}</style>
 </defs>
 <g id="figure_1">
  <g id="patch_1">
   <path d="M 0 210.538317 
L 381.785756 210.538317 
L 381.785756 0 
L 0 0 
L 0 210.538317 
z
" style="fill: none"/>
  </g>
  <g id="axes_1">
   <g id="patch_2">
    <path d="M 39.785756 173.52 
L 374.585756 173.52 
L 374.585756 7.2 
L 39.785756 7.2 
L 39.785756 173.52 
z
" style="fill: none"/>
   </g>
   <g id="matplotlib.axis_1">
    <g id="xtick_1">
     <g id="line2d_1">
      <defs>
       <path id="m8b4be7d4c6" d="M 0 0 
L 0 3.5 
" style="stroke: #000000; stroke-width: 0.8"/>
      </defs>
      <g>
       <use xlink:href="#m8b4be7d4c6" x="55.003938" y="173.52" style="stroke: #000000; stroke-width: 0.8"/>
      </g>
     </g>
     <g id="text_1">
      <!-- $\mathdefault{10^{0}}$ -->
      <g transform="translate(48.036983 187.438498) scale(0.1 -0.1)">
       <defs>
        <path id="CMR17-31" d="M 1702 4058 
C 1702 4192 1696 4192 1606 4192 
C 1357 3916 979 3827 621 3827 
C 602 3827 570 3827 563 3808 
C 557 3795 557 3782 557 3648 
C 755 3648 1088 3686 1344 3839 
L 1344 461 
C 1344 236 1331 160 781 160 
L 589 160 
L 589 0 
C 896 0 1216 0 1523 0 
C 1830 0 2150 0 2458 0 
L 2458 160 
L 2266 160 
C 1715 160 1702 230 1702 458 
L 1702 4058 
z
" transform="scale(0.015625)"/>
        <path id="CMR17-30" d="M 2688 2025 
C 2688 2416 2682 3080 2413 3591 
C 2176 4039 1798 4198 1466 4198 
C 1158 4198 768 4058 525 3597 
C 269 3118 243 2524 243 2025 
C 243 1661 250 1106 448 619 
C 723 -39 1216 -128 1466 -128 
C 1760 -128 2208 -7 2470 600 
C 2662 1042 2688 1559 2688 2025 
z
M 1466 -26 
C 1056 -26 813 325 723 812 
C 653 1188 653 1738 653 2096 
C 653 2588 653 2997 736 3387 
C 858 3929 1216 4096 1466 4096 
C 1728 4096 2067 3923 2189 3400 
C 2272 3036 2278 2607 2278 2096 
C 2278 1680 2278 1169 2202 792 
C 2067 95 1690 -26 1466 -26 
z
" transform="scale(0.015625)"/>
       </defs>
       <use xlink:href="#CMR17-31" transform="scale(0.996264)"/>
       <use xlink:href="#CMR17-30" transform="translate(45.690477 0) scale(0.996264)"/>
       <use xlink:href="#CMR17-30" transform="translate(91.380954 36.153639) scale(0.697382)"/>
      </g>
     </g>
    </g>
    <g id="xtick_2">
     <g id="line2d_2">
      <g>
       <use xlink:href="#m8b4be7d4c6" x="156.458483" y="173.52" style="stroke: #000000; stroke-width: 0.8"/>
      </g>
     </g>
     <g id="text_2">
      <!-- $\mathdefault{10^{1}}$ -->
      <g transform="translate(149.491529 187.438498) scale(0.1 -0.1)">
       <use xlink:href="#CMR17-31" transform="scale(0.996264)"/>
       <use xlink:href="#CMR17-30" transform="translate(45.690477 0) scale(0.996264)"/>
       <use xlink:href="#CMR17-31" transform="translate(91.380954 36.153639) scale(0.697382)"/>
      </g>
     </g>
    </g>
    <g id="xtick_3">
     <g id="line2d_3">
      <g>
       <use xlink:href="#m8b4be7d4c6" x="257.913028" y="173.52" style="stroke: #000000; stroke-width: 0.8"/>
      </g>
     </g>
     <g id="text_3">
      <!-- $\mathdefault{10^{2}}$ -->
      <g transform="translate(250.946074 187.438498) scale(0.1 -0.1)">
       <defs>
        <path id="CMR17-32" d="M 2669 989 
L 2554 989 
C 2490 536 2438 459 2413 420 
C 2381 369 1920 369 1830 369 
L 602 369 
C 832 619 1280 1072 1824 1597 
C 2214 1967 2669 2402 2669 3035 
C 2669 3790 2067 4224 1395 4224 
C 691 4224 262 3604 262 3030 
C 262 2780 448 2748 525 2748 
C 589 2748 781 2787 781 3010 
C 781 3207 614 3264 525 3264 
C 486 3264 448 3258 422 3245 
C 544 3790 915 4058 1306 4058 
C 1862 4058 2227 3617 2227 3035 
C 2227 2479 1901 2000 1536 1584 
L 262 146 
L 262 0 
L 2515 0 
L 2669 989 
z
" transform="scale(0.015625)"/>
       </defs>
       <use xlink:href="#CMR17-31" transform="scale(0.996264)"/>
       <use xlink:href="#CMR17-30" transform="translate(45.690477 0) scale(0.996264)"/>
       <use xlink:href="#CMR17-32" transform="translate(91.380954 36.153639) scale(0.697382)"/>
      </g>
     </g>
    </g>
    <g id="xtick_4">
     <g id="line2d_4">
      <g>
       <use xlink:href="#m8b4be7d4c6" x="359.367574" y="173.52" style="stroke: #000000; stroke-width: 0.8"/>
      </g>
     </g>
     <g id="text_4">
      <!-- $\mathdefault{10^{3}}$ -->
      <g transform="translate(352.40062 187.438498) scale(0.1 -0.1)">
       <defs>
        <path id="CMR17-33" d="M 1414 2157 
C 1984 2157 2234 1662 2234 1090 
C 2234 320 1824 25 1453 25 
C 1114 25 563 194 390 693 
C 422 680 454 680 486 680 
C 640 680 755 782 755 948 
C 755 1133 614 1216 486 1216 
C 378 1216 211 1165 211 926 
C 211 335 787 -128 1466 -128 
C 2176 -128 2720 430 2720 1085 
C 2720 1707 2208 2157 1600 2227 
C 2086 2328 2554 2756 2554 3329 
C 2554 3820 2048 4179 1472 4179 
C 890 4179 378 3829 378 3329 
C 378 3110 544 3072 627 3072 
C 762 3072 877 3155 877 3321 
C 877 3486 762 3569 627 3569 
C 602 3569 570 3569 544 3557 
C 730 3959 1235 4032 1459 4032 
C 1683 4032 2106 3925 2106 3320 
C 2106 3143 2080 2828 1862 2550 
C 1670 2304 1453 2304 1242 2284 
C 1210 2284 1062 2269 1037 2269 
C 992 2263 966 2257 966 2208 
C 966 2163 973 2157 1101 2157 
L 1414 2157 
z
" transform="scale(0.015625)"/>
       </defs>
       <use xlink:href="#CMR17-31" transform="scale(0.996264)"/>
       <use xlink:href="#CMR17-30" transform="translate(45.690477 0) scale(0.996264)"/>
       <use xlink:href="#CMR17-33" transform="translate(91.380954 36.153639) scale(0.697382)"/>
      </g>
     </g>
    </g>
    <g id="xtick_5">
     <g id="line2d_5">
      <defs>
       <path id="me9f9fa3435" d="M 0 0 
L 0 2 
" style="stroke: #000000; stroke-width: 0.6"/>
      </defs>
      <g>
       <use xlink:href="#me9f9fa3435" x="45.171976" y="173.52" style="stroke: #000000; stroke-width: 0.6"/>
      </g>
     </g>
    </g>
    <g id="xtick_6">
     <g id="line2d_6">
      <g>
       <use xlink:href="#me9f9fa3435" x="50.361632" y="173.52" style="stroke: #000000; stroke-width: 0.6"/>
      </g>
     </g>
    </g>
    <g id="xtick_7">
     <g id="line2d_7">
      <g>
       <use xlink:href="#me9f9fa3435" x="85.544799" y="173.52" style="stroke: #000000; stroke-width: 0.6"/>
      </g>
     </g>
    </g>
    <g id="xtick_8">
     <g id="line2d_8">
      <g>
       <use xlink:href="#me9f9fa3435" x="103.410058" y="173.52" style="stroke: #000000; stroke-width: 0.6"/>
      </g>
     </g>
    </g>
    <g id="xtick_9">
     <g id="line2d_9">
      <g>
       <use xlink:href="#me9f9fa3435" x="116.08566" y="173.52" style="stroke: #000000; stroke-width: 0.6"/>
      </g>
     </g>
    </g>
    <g id="xtick_10">
     <g id="line2d_10">
      <g>
       <use xlink:href="#me9f9fa3435" x="125.917622" y="173.52" style="stroke: #000000; stroke-width: 0.6"/>
      </g>
     </g>
    </g>
    <g id="xtick_11">
     <g id="line2d_11">
      <g>
       <use xlink:href="#me9f9fa3435" x="133.950919" y="173.52" style="stroke: #000000; stroke-width: 0.6"/>
      </g>
     </g>
    </g>
    <g id="xtick_12">
     <g id="line2d_12">
      <g>
       <use xlink:href="#me9f9fa3435" x="140.742975" y="173.52" style="stroke: #000000; stroke-width: 0.6"/>
      </g>
     </g>
    </g>
    <g id="xtick_13">
     <g id="line2d_13">
      <g>
       <use xlink:href="#me9f9fa3435" x="146.626522" y="173.52" style="stroke: #000000; stroke-width: 0.6"/>
      </g>
     </g>
    </g>
    <g id="xtick_14">
     <g id="line2d_14">
      <g>
       <use xlink:href="#me9f9fa3435" x="151.816178" y="173.52" style="stroke: #000000; stroke-width: 0.6"/>
      </g>
     </g>
    </g>
    <g id="xtick_15">
     <g id="line2d_15">
      <g>
       <use xlink:href="#me9f9fa3435" x="186.999344" y="173.52" style="stroke: #000000; stroke-width: 0.6"/>
      </g>
     </g>
    </g>
    <g id="xtick_16">
     <g id="line2d_16">
      <g>
       <use xlink:href="#me9f9fa3435" x="204.864603" y="173.52" style="stroke: #000000; stroke-width: 0.6"/>
      </g>
     </g>
    </g>
    <g id="xtick_17">
     <g id="line2d_17">
      <g>
       <use xlink:href="#me9f9fa3435" x="217.540206" y="173.52" style="stroke: #000000; stroke-width: 0.6"/>
      </g>
     </g>
    </g>
    <g id="xtick_18">
     <g id="line2d_18">
      <g>
       <use xlink:href="#me9f9fa3435" x="227.372167" y="173.52" style="stroke: #000000; stroke-width: 0.6"/>
      </g>
     </g>
    </g>
    <g id="xtick_19">
     <g id="line2d_19">
      <g>
       <use xlink:href="#me9f9fa3435" x="235.405464" y="173.52" style="stroke: #000000; stroke-width: 0.6"/>
      </g>
     </g>
    </g>
    <g id="xtick_20">
     <g id="line2d_20">
      <g>
       <use xlink:href="#me9f9fa3435" x="242.19752" y="173.52" style="stroke: #000000; stroke-width: 0.6"/>
      </g>
     </g>
    </g>
    <g id="xtick_21">
     <g id="line2d_21">
      <g>
       <use xlink:href="#me9f9fa3435" x="248.081067" y="173.52" style="stroke: #000000; stroke-width: 0.6"/>
      </g>
     </g>
    </g>
    <g id="xtick_22">
     <g id="line2d_22">
      <g>
       <use xlink:href="#me9f9fa3435" x="253.270723" y="173.52" style="stroke: #000000; stroke-width: 0.6"/>
      </g>
     </g>
    </g>
    <g id="xtick_23">
     <g id="line2d_23">
      <g>
       <use xlink:href="#me9f9fa3435" x="288.45389" y="173.52" style="stroke: #000000; stroke-width: 0.6"/>
      </g>
     </g>
    </g>
    <g id="xtick_24">
     <g id="line2d_24">
      <g>
       <use xlink:href="#me9f9fa3435" x="306.319148" y="173.52" style="stroke: #000000; stroke-width: 0.6"/>
      </g>
     </g>
    </g>
    <g id="xtick_25">
     <g id="line2d_25">
      <g>
       <use xlink:href="#me9f9fa3435" x="318.994751" y="173.52" style="stroke: #000000; stroke-width: 0.6"/>
      </g>
     </g>
    </g>
    <g id="xtick_26">
     <g id="line2d_26">
      <g>
       <use xlink:href="#me9f9fa3435" x="328.826712" y="173.52" style="stroke: #000000; stroke-width: 0.6"/>
      </g>
     </g>
    </g>
    <g id="xtick_27">
     <g id="line2d_27">
      <g>
       <use xlink:href="#me9f9fa3435" x="336.86001" y="173.52" style="stroke: #000000; stroke-width: 0.6"/>
      </g>
     </g>
    </g>
    <g id="xtick_28">
     <g id="line2d_28">
      <g>
       <use xlink:href="#me9f9fa3435" x="343.652066" y="173.52" style="stroke: #000000; stroke-width: 0.6"/>
      </g>
     </g>
    </g>
    <g id="xtick_29">
     <g id="line2d_29">
      <g>
       <use xlink:href="#me9f9fa3435" x="349.535613" y="173.52" style="stroke: #000000; stroke-width: 0.6"/>
      </g>
     </g>
    </g>
    <g id="xtick_30">
     <g id="line2d_30">
      <g>
       <use xlink:href="#me9f9fa3435" x="354.725268" y="173.52" style="stroke: #000000; stroke-width: 0.6"/>
      </g>
     </g>
    </g>
    <g id="text_5">
     <!-- Period/d -->
     <g transform="translate(187.730887 200.847657) scale(0.1 -0.1)">
      <defs>
       <path id="CMR17-50" d="M 1267 2042 
L 2291 2042 
C 3117 2042 3718 2578 3718 3184 
C 3718 3791 3130 4352 2291 4352 
L 333 4352 
L 333 4186 
C 774 4186 845 4186 845 3899 
L 845 446 
C 845 160 774 160 333 160 
L 333 0 
C 518 0 858 0 1056 0 
C 1254 0 1594 0 1779 0 
L 1779 160 
C 1338 160 1267 160 1267 446 
L 1267 2042 
z
M 1254 2176 
L 1254 3938 
C 1254 4155 1267 4186 1523 4186 
L 2170 4186 
C 2995 4186 3232 3714 3232 3184 
C 3232 2604 2950 2176 2170 2176 
L 1254 2176 
z
" transform="scale(0.015625)"/>
       <path id="CMR17-65" d="M 2438 1472 
C 2464 1498 2464 1511 2464 1576 
C 2464 2238 2118 2816 1389 2816 
C 710 2816 173 2169 173 1383 
C 173 551 781 -64 1459 -64 
C 2176 -64 2458 607 2458 740 
C 2458 784 2419 784 2406 784 
C 2362 784 2355 771 2330 696 
C 2189 265 1837 51 1504 51 
C 1229 51 954 203 781 480 
C 582 803 582 1176 582 1472 
L 2438 1472 
z
M 589 1568 
C 634 2505 1126 2714 1382 2714 
C 1818 2714 2112 2297 2118 1568 
L 589 1568 
z
" transform="scale(0.015625)"/>
       <path id="CMR17-72" d="M 960 1497 
C 960 2112 1222 2688 1702 2688 
C 1747 2688 1792 2682 1837 2662 
C 1837 2662 1696 2617 1696 2452 
C 1696 2298 1818 2234 1914 2234 
C 1990 2234 2131 2279 2131 2458 
C 2131 2663 1926 2790 1709 2790 
C 1222 2790 1011 2317 947 2093 
L 941 2093 
L 941 2790 
L 198 2720 
L 198 2554 
C 576 2554 634 2515 634 2208 
L 634 428 
C 634 184 608 153 198 153 
L 198 -13 
C 352 0 646 0 813 0 
C 998 0 1325 0 1498 -13 
L 1498 153 
C 1037 153 960 153 960 440 
L 960 1497 
z
" transform="scale(0.015625)"/>
       <path id="CMR17-69" d="M 992 3909 
C 992 4049 877 4170 730 4170 
C 589 4170 467 4056 467 3909 
C 467 3769 582 3648 730 3648 
C 870 3648 992 3763 992 3909 
z
M 243 2706 
L 243 2541 
C 602 2541 653 2502 653 2197 
L 653 427 
C 653 184 627 153 218 153 
L 218 -13 
C 371 0 646 0 806 0 
C 960 0 1222 0 1370 -13 
L 1370 153 
C 992 153 979 191 979 420 
L 979 2776 
L 243 2706 
z
" transform="scale(0.015625)"/>
       <path id="CMR17-6f" d="M 2758 1356 
C 2758 2176 2163 2816 1466 2816 
C 768 2816 173 2176 173 1356 
C 173 551 768 -64 1466 -64 
C 2163 -64 2758 551 2758 1356 
z
M 1466 51 
C 1165 51 909 230 762 480 
C 602 767 582 1126 582 1408 
C 582 1677 595 2010 762 2298 
C 890 2509 1139 2714 1466 2714 
C 1754 2714 1997 2554 2150 2330 
C 2349 2029 2349 1607 2349 1408 
C 2349 1158 2336 775 2163 467 
C 1984 173 1709 51 1466 51 
z
" transform="scale(0.015625)"/>
       <path id="CMR17-64" d="M 1869 4326 
L 1869 4160 
C 2246 4160 2304 4122 2304 3820 
L 2304 2345 
C 2278 2377 2016 2790 1498 2790 
C 845 2790 211 2208 211 1364 
C 211 525 806 -64 1434 -64 
C 1978 -64 2259 337 2291 380 
L 2291 -63 
L 3066 -63 
L 3066 128 
C 2688 128 2630 166 2630 473 
L 2630 4396 
L 1869 4326 
z
M 2291 755 
C 2291 563 2176 390 2029 262 
C 1811 70 1594 38 1472 38 
C 1286 38 621 134 621 1356 
C 621 2612 1363 2688 1530 2688 
C 1824 2688 2061 2522 2208 2291 
C 2291 2157 2291 2138 2291 2023 
L 2291 755 
z
" transform="scale(0.015625)"/>
       <path id="CMR17-2f" d="M 2605 4545 
C 2637 4627 2637 4640 2637 4653 
C 2637 4729 2579 4768 2528 4768 
C 2451 4768 2426 4717 2400 4640 
L 326 -1377 
C 294 -1460 294 -1473 294 -1486 
C 294 -1562 352 -1600 403 -1600 
C 480 -1600 506 -1549 531 -1473 
L 2605 4545 
z
" transform="scale(0.015625)"/>
      </defs>
      <use xlink:href="#CMR17-50" transform="scale(0.996264)"/>
      <use xlink:href="#CMR17-65" transform="translate(59.983847 0) scale(0.996264)"/>
      <use xlink:href="#CMR17-72" transform="translate(100.469507 0) scale(0.996264)"/>
      <use xlink:href="#CMR17-69" transform="translate(135.750275 0) scale(0.996264)"/>
      <use xlink:href="#CMR17-6f" transform="translate(160.621333 0) scale(0.996264)"/>
      <use xlink:href="#CMR17-64" transform="translate(208.914249 0) scale(0.996264)"/>
      <use xlink:href="#CMR17-2f" transform="translate(259.809619 0) scale(0.996264)"/>
      <use xlink:href="#CMR17-64" transform="translate(305.500096 0) scale(0.996264)"/>
     </g>
    </g>
   </g>
   <g id="matplotlib.axis_2">
    <g id="ytick_1">
     <g id="line2d_31">
      <defs>
       <path id="m78f55f0fd1" d="M 0 0 
L -3.5 0 
" style="stroke: #000000; stroke-width: 0.8"/>
      </defs>
      <g>
       <use xlink:href="#m78f55f0fd1" x="39.785756" y="173.52" style="stroke: #000000; stroke-width: 0.8"/>
      </g>
     </g>
     <g id="text_6">
      <!-- $\mathdefault{0.0}$ -->
      <g transform="translate(20.055677 176.979249) scale(0.1 -0.1)">
       <defs>
        <path id="CMMI12-3a" d="M 1178 307 
C 1178 492 1024 619 870 619 
C 685 619 557 466 557 313 
C 557 128 710 0 864 0 
C 1050 0 1178 153 1178 307 
z
" transform="scale(0.015625)"/>
       </defs>
       <use xlink:href="#CMR17-30" transform="scale(0.996264)"/>
       <use xlink:href="#CMMI12-3a" transform="translate(45.690477 0) scale(0.996264)"/>
       <use xlink:href="#CMR17-30" transform="translate(72.787654 0) scale(0.996264)"/>
      </g>
     </g>
    </g>
    <g id="ytick_2">
     <g id="line2d_32">
      <g>
       <use xlink:href="#m78f55f0fd1" x="39.785756" y="141.839999" style="stroke: #000000; stroke-width: 0.8"/>
      </g>
     </g>
     <g id="text_7">
      <!-- $\mathdefault{0.2}$ -->
      <g transform="translate(20.055677 145.299249) scale(0.1 -0.1)">
       <use xlink:href="#CMR17-30" transform="scale(0.996264)"/>
       <use xlink:href="#CMMI12-3a" transform="translate(45.690477 0) scale(0.996264)"/>
       <use xlink:href="#CMR17-32" transform="translate(72.787654 0) scale(0.996264)"/>
      </g>
     </g>
    </g>
    <g id="ytick_3">
     <g id="line2d_33">
      <g>
       <use xlink:href="#m78f55f0fd1" x="39.785756" y="110.159999" style="stroke: #000000; stroke-width: 0.8"/>
      </g>
     </g>
     <g id="text_8">
      <!-- $\mathdefault{0.4}$ -->
      <g transform="translate(20.055677 113.619248) scale(0.1 -0.1)">
       <defs>
        <path id="CMR17-34" d="M 2150 4122 
C 2150 4256 2144 4256 2029 4256 
L 128 1254 
L 128 1088 
L 1779 1088 
L 1779 457 
C 1779 224 1766 160 1318 160 
L 1197 160 
L 1197 0 
C 1402 0 1747 0 1965 0 
C 2182 0 2528 0 2733 0 
L 2733 160 
L 2611 160 
C 2163 160 2150 224 2150 457 
L 2150 1088 
L 2803 1088 
L 2803 1254 
L 2150 1254 
L 2150 4122 
z
M 1798 3703 
L 1798 1254 
L 256 1254 
L 1798 3703 
z
" transform="scale(0.015625)"/>
       </defs>
       <use xlink:href="#CMR17-30" transform="scale(0.996264)"/>
       <use xlink:href="#CMMI12-3a" transform="translate(45.690477 0) scale(0.996264)"/>
       <use xlink:href="#CMR17-34" transform="translate(72.787654 0) scale(0.996264)"/>
      </g>
     </g>
    </g>
    <g id="ytick_4">
     <g id="line2d_34">
      <g>
       <use xlink:href="#m78f55f0fd1" x="39.785756" y="78.479998" style="stroke: #000000; stroke-width: 0.8"/>
      </g>
     </g>
     <g id="text_9">
      <!-- $\mathdefault{0.6}$ -->
      <g transform="translate(20.055677 81.939247) scale(0.1 -0.1)">
       <defs>
        <path id="CMR17-36" d="M 678 2176 
C 678 3690 1395 4032 1811 4032 
C 1946 4032 2272 4009 2400 3776 
C 2298 3776 2106 3776 2106 3553 
C 2106 3381 2246 3323 2336 3323 
C 2394 3323 2566 3348 2566 3560 
C 2566 3954 2246 4179 1805 4179 
C 1043 4179 243 3390 243 1984 
C 243 253 966 -128 1478 -128 
C 2099 -128 2688 427 2688 1283 
C 2688 2081 2170 2662 1517 2662 
C 1126 2662 838 2407 678 1960 
L 678 2176 
z
M 1478 25 
C 691 25 691 1200 691 1436 
C 691 1896 909 2560 1504 2560 
C 1613 2560 1926 2560 2138 2120 
C 2253 1870 2253 1609 2253 1289 
C 2253 944 2253 690 2118 434 
C 1978 171 1773 25 1478 25 
z
" transform="scale(0.015625)"/>
       </defs>
       <use xlink:href="#CMR17-30" transform="scale(0.996264)"/>
       <use xlink:href="#CMMI12-3a" transform="translate(45.690477 0) scale(0.996264)"/>
       <use xlink:href="#CMR17-36" transform="translate(72.787654 0) scale(0.996264)"/>
      </g>
     </g>
    </g>
    <g id="ytick_5">
     <g id="line2d_35">
      <g>
       <use xlink:href="#m78f55f0fd1" x="39.785756" y="46.799997" style="stroke: #000000; stroke-width: 0.8"/>
      </g>
     </g>
     <g id="text_10">
      <!-- $\mathdefault{0.8}$ -->
      <g transform="translate(20.055677 50.259247) scale(0.1 -0.1)">
       <defs>
        <path id="CMR17-38" d="M 1741 2264 
C 2144 2467 2554 2773 2554 3263 
C 2554 3841 1990 4179 1472 4179 
C 890 4179 378 3759 378 3180 
C 378 3021 416 2747 666 2505 
C 730 2442 998 2251 1171 2130 
C 883 1983 211 1634 211 934 
C 211 279 838 -128 1459 -128 
C 2144 -128 2720 362 2720 1010 
C 2720 1590 2330 1857 2074 2029 
L 1741 2264 
z
M 902 2822 
C 851 2854 595 3051 595 3351 
C 595 3739 998 4032 1459 4032 
C 1965 4032 2336 3676 2336 3262 
C 2336 2669 1670 2331 1638 2331 
C 1632 2331 1626 2331 1574 2370 
L 902 2822 
z
M 2080 1519 
C 2176 1449 2483 1240 2483 851 
C 2483 381 2010 25 1472 25 
C 890 25 448 438 448 940 
C 448 1443 838 1862 1280 2060 
L 2080 1519 
z
" transform="scale(0.015625)"/>
       </defs>
       <use xlink:href="#CMR17-30" transform="scale(0.996264)"/>
       <use xlink:href="#CMMI12-3a" transform="translate(45.690477 0) scale(0.996264)"/>
       <use xlink:href="#CMR17-38" transform="translate(72.787654 0) scale(0.996264)"/>
      </g>
     </g>
    </g>
    <g id="ytick_6">
     <g id="line2d_36">
      <g>
       <use xlink:href="#m78f55f0fd1" x="39.785756" y="15.119997" style="stroke: #000000; stroke-width: 0.8"/>
      </g>
     </g>
     <g id="text_11">
      <!-- $\mathdefault{1.0}$ -->
      <g transform="translate(20.055677 18.579246) scale(0.1 -0.1)">
       <use xlink:href="#CMR17-31" transform="scale(0.996264)"/>
       <use xlink:href="#CMMI12-3a" transform="translate(45.690477 0) scale(0.996264)"/>
       <use xlink:href="#CMR17-30" transform="translate(72.787654 0) scale(0.996264)"/>
      </g>
     </g>
    </g>
    <g id="text_12">
     <!-- Normalised Lomb-Scargle Power -->
     <g transform="translate(14.118498 160.998001) rotate(-90) scale(0.1 -0.1)">
      <defs>
       <path id="CMR17-4e" d="M 1312 4250 
C 1267 4320 1261 4320 1139 4320 
L 326 4320 
L 326 4160 
L 448 4160 
C 704 4160 819 4129 838 4122 
L 838 610 
C 838 451 838 153 326 153 
L 326 -13 
C 474 0 742 0 902 0 
C 1062 0 1331 0 1478 -13 
L 1478 153 
C 966 153 966 451 966 610 
L 966 4033 
C 1011 3995 1011 3982 1056 3919 
L 3430 76 
C 3475 0 3494 0 3526 0 
C 3590 0 3590 19 3590 139 
L 3590 3705 
C 3590 3863 3590 4160 4102 4160 
L 4102 4326 
C 3955 4320 3686 4320 3526 4320 
C 3366 4320 3098 4320 2950 4326 
L 2950 4160 
C 3462 4160 3462 3862 3462 3703 
L 3462 763 
L 1312 4250 
z
" transform="scale(0.015625)"/>
       <path id="CMR17-6d" d="M 4326 1933 
C 4326 2252 4269 2790 3507 2790 
C 3072 2790 2771 2496 2656 2151 
L 2650 2151 
C 2573 2676 2195 2790 1837 2790 
C 1331 2790 1069 2400 973 2144 
L 966 2144 
L 966 2790 
L 211 2720 
L 211 2554 
C 589 2554 646 2515 646 2208 
L 646 428 
C 646 184 621 153 211 153 
L 211 -13 
C 365 0 646 0 813 0 
C 979 0 1267 0 1421 -13 
L 1421 153 
C 1011 153 986 178 986 428 
L 986 1658 
C 986 2247 1344 2688 1792 2688 
C 2266 2688 2317 2266 2317 1958 
L 2317 428 
C 2317 184 2291 153 1882 153 
L 1882 -13 
C 2035 0 2317 0 2483 0 
C 2650 0 2938 0 3091 -13 
L 3091 153 
C 2682 153 2656 178 2656 428 
L 2656 1658 
C 2656 2247 3014 2688 3462 2688 
C 3936 2688 3987 2266 3987 1958 
L 3987 428 
C 3987 184 3962 153 3552 153 
L 3552 -13 
C 3706 0 3987 0 4154 0 
C 4320 0 4608 0 4762 -13 
L 4762 153 
C 4352 153 4326 178 4326 428 
L 4326 1933 
z
" transform="scale(0.015625)"/>
       <path id="CMR17-61" d="M 2304 1653 
C 2304 2072 2304 2294 2035 2543 
C 1798 2752 1523 2816 1306 2816 
C 800 2816 435 2407 435 1971 
C 435 1728 627 1728 666 1728 
C 749 1728 896 1778 896 1954 
C 896 2112 774 2181 666 2181 
C 640 2181 608 2174 589 2168 
C 723 2592 1069 2714 1293 2714 
C 1613 2714 1965 2429 1965 1885 
L 1965 1600 
C 1587 1600 1133 1549 774 1357 
C 371 1133 256 813 256 570 
C 256 77 832 -64 1171 -64 
C 1523 -64 1850 139 1990 511 
C 2003 233 2182 -18 2464 -18 
C 2598 -18 2938 70 2938 567 
L 2938 920 
L 2822 920 
L 2822 562 
C 2822 178 2650 128 2566 128 
C 2304 128 2304 458 2304 738 
L 2304 1653 
z
M 1965 870 
C 1965 317 1568 38 1216 38 
C 896 38 646 275 646 570 
C 646 761 730 1100 1101 1305 
C 1408 1478 1760 1504 1965 1504 
L 1965 870 
z
" transform="scale(0.015625)"/>
       <path id="CMR17-6c" d="M 979 4396 
L 218 4326 
L 218 4160 
C 595 4160 653 4122 653 3817 
L 653 426 
C 653 184 627 153 218 153 
L 218 -13 
C 371 0 653 0 813 0 
C 979 0 1261 0 1414 -13 
L 1414 153 
C 1005 153 979 178 979 426 
L 979 4396 
z
" transform="scale(0.015625)"/>
       <path id="CMR17-73" d="M 1978 2697 
C 1978 2813 1971 2819 1933 2819 
C 1907 2819 1901 2813 1824 2717 
C 1805 2691 1747 2626 1728 2601 
C 1523 2819 1235 2819 1126 2819 
C 416 2819 160 2447 160 2076 
C 160 1498 813 1365 998 1325 
C 1402 1243 1542 1217 1677 1101 
C 1760 1025 1901 884 1901 654 
C 1901 384 1747 38 1158 38 
C 602 38 403 460 288 1021 
C 269 1110 269 1117 218 1117 
C 166 1117 160 1110 160 983 
L 160 63 
C 160 -51 166 -58 205 -58 
C 237 -58 243 -51 275 0 
C 314 57 410 211 448 276 
C 576 103 800 -64 1158 -64 
C 1792 -64 2131 283 2131 784 
C 2131 1112 1958 1285 1875 1362 
C 1683 1561 1459 1606 1190 1657 
C 838 1735 390 1825 390 2217 
C 390 2383 480 2737 1126 2737 
C 1811 2737 1850 2094 1862 1888 
C 1869 1856 1901 1849 1920 1849 
C 1978 1849 1978 1869 1978 1978 
L 1978 2697 
z
" transform="scale(0.015625)"/>
       <path id="CMR17-4c" d="M 3469 1615 
L 3354 1615 
C 3302 983 3219 166 2125 166 
L 1530 166 
C 1274 166 1261 197 1261 414 
L 1261 3898 
C 1261 4129 1274 4192 1760 4192 
L 1901 4192 
L 1901 4352 
C 1638 4352 1331 4352 1069 4352 
C 870 4352 512 4352 326 4352 
L 326 4192 
C 768 4192 838 4192 838 3905 
L 838 452 
C 838 166 768 166 326 166 
L 326 0 
L 3315 0 
L 3469 1615 
z
" transform="scale(0.015625)"/>
       <path id="CMR17-62" d="M 960 4396 
L 198 4326 
L 198 4160 
C 576 4160 634 4122 634 3817 
L 634 -13 
L 749 -13 
L 934 441 
C 1120 141 1395 -64 1766 -64 
C 2406 -64 3053 500 3053 1370 
C 3053 2188 2477 2790 1830 2790 
C 1434 2790 1152 2579 960 2330 
L 960 4396 
z
M 973 2004 
C 973 2118 973 2138 1062 2272 
C 1312 2657 1670 2688 1792 2688 
C 1984 2688 2643 2585 2643 1376 
C 2643 108 1888 38 1734 38 
C 1536 38 1248 114 1043 486 
C 973 608 973 621 973 735 
L 973 2004 
z
" transform="scale(0.015625)"/>
       <path id="CMR17-2d" d="M 1632 1216 
L 1632 1496 
L 26 1496 
L 26 1216 
L 1632 1216 
z
" transform="scale(0.015625)"/>
       <path id="CMR17-53" d="M 2803 4290 
C 2803 4404 2797 4411 2758 4411 
C 2720 4411 2707 4385 2682 4328 
L 2490 3907 
C 2246 4257 1875 4416 1472 4416 
C 819 4416 294 3901 294 3253 
C 294 3056 339 2776 557 2510 
C 794 2218 1018 2167 1530 2033 
C 1722 1982 2042 1899 2106 1874 
C 2470 1722 2662 1341 2662 985 
C 2662 527 2336 38 1779 38 
C 1094 38 454 419 410 1311 
C 403 1413 397 1419 352 1419 
C 301 1419 294 1413 294 1285 
L 294 -1 
C 294 -115 301 -122 339 -122 
C 384 -122 397 -90 486 108 
C 493 127 493 140 614 381 
C 934 -39 1472 -128 1779 -128 
C 2477 -128 2970 451 2970 1124 
C 2970 1454 2848 1708 2778 1823 
C 2509 2230 2221 2306 1914 2382 
C 1869 2402 1856 2402 1498 2490 
C 1152 2579 1005 2624 845 2796 
C 666 2992 602 3196 602 3399 
C 602 3812 934 4263 1478 4263 
C 2157 4263 2579 3786 2675 2993 
C 2694 2878 2701 2872 2746 2872 
C 2803 2872 2803 2891 2803 2999 
L 2803 4290 
z
" transform="scale(0.015625)"/>
       <path id="CMR17-63" d="M 2234 2240 
C 2112 2240 1933 2240 1933 2017 
C 1933 1838 2080 1787 2163 1787 
C 2208 1787 2394 1807 2394 2024 
C 2394 2467 1958 2803 1466 2803 
C 787 2803 211 2178 211 1363 
C 211 516 813 -64 1466 -64 
C 2259 -64 2458 677 2458 748 
C 2458 774 2451 793 2406 793 
C 2362 793 2355 787 2330 703 
C 2163 180 1798 51 1523 51 
C 1114 51 621 427 621 1369 
C 621 2338 1094 2688 1472 2688 
C 1722 2688 2093 2573 2234 2240 
z
" transform="scale(0.015625)"/>
       <path id="CMR17-67" d="M 710 1164 
C 832 1068 1043 960 1299 960 
C 1805 960 2240 1357 2240 1888 
C 2240 2054 2189 2310 1997 2509 
C 2176 2692 2438 2752 2586 2752 
C 2611 2752 2650 2752 2682 2734 
C 2656 2728 2598 2703 2598 2605 
C 2598 2527 2656 2471 2739 2471 
C 2835 2471 2886 2533 2886 2614 
C 2886 2731 2790 2854 2586 2854 
C 2330 2854 2106 2738 1926 2580 
C 1734 2753 1504 2816 1299 2816 
C 794 2816 358 2419 358 1888 
C 358 1522 570 1292 634 1228 
C 442 1004 442 743 442 711 
C 442 545 506 302 723 168 
C 390 85 128 -169 128 -486 
C 128 -943 736 -1280 1466 -1280 
C 2170 -1280 2803 -956 2803 -479 
C 2803 384 1856 384 1363 384 
C 1216 384 954 384 922 391 
C 723 423 589 602 589 826 
C 589 883 589 1024 710 1164 
z
M 1299 1068 
C 736 1068 736 1760 736 1889 
C 736 2016 736 2708 1299 2708 
C 1862 2708 1862 2016 1862 1889 
C 1862 1760 1862 1068 1299 1068 
z
M 1466 -1171 
C 826 -1171 384 -835 384 -486 
C 384 -289 493 -105 634 -4 
C 794 104 858 104 1293 104 
C 1818 104 2547 104 2547 -486 
C 2547 -835 2106 -1171 1466 -1171 
z
" transform="scale(0.015625)"/>
       <path id="CMR17-77" d="M 3725 2183 
C 3853 2560 4109 2560 4205 2560 
L 4205 2732 
C 4077 2732 3949 2732 3821 2732 
C 3699 2732 3424 2732 3315 2738 
L 3315 2560 
C 3514 2560 3622 2445 3622 2286 
C 3622 2241 3610 2184 3597 2140 
L 2995 407 
L 2342 2275 
C 2330 2319 2310 2370 2310 2395 
C 2310 2560 2528 2560 2630 2560 
L 2630 2738 
C 2483 2732 2214 2732 2061 2732 
C 1901 2732 1734 2732 1587 2738 
L 1587 2560 
C 1939 2560 1939 2547 2074 2149 
L 1485 451 
L 851 2281 
C 819 2363 819 2376 819 2395 
C 819 2560 1037 2560 1139 2560 
L 1139 2738 
C 986 2732 717 2732 557 2732 
C 416 2732 198 2732 64 2738 
L 64 2560 
C 346 2560 416 2541 486 2331 
L 1274 49 
C 1299 -33 1318 -52 1370 -52 
C 1414 -52 1440 -39 1472 56 
L 2131 1980 
L 2797 56 
C 2829 -39 2854 -52 2899 -52 
C 2950 -52 2970 -33 2995 50 
L 3725 2183 
z
" transform="scale(0.015625)"/>
      </defs>
      <use xlink:href="#CMR17-4e" transform="scale(0.996264)"/>
      <use xlink:href="#CMR17-6f" transform="translate(69.07243 0) scale(0.996264)"/>
      <use xlink:href="#CMR17-72" transform="translate(114.762907 0) scale(0.996264)"/>
      <use xlink:href="#CMR17-6d" transform="translate(150.043675 0) scale(0.996264)"/>
      <use xlink:href="#CMR17-61" transform="translate(226.963265 0) scale(0.996264)"/>
      <use xlink:href="#CMR17-6c" transform="translate(272.653742 0) scale(0.996264)"/>
      <use xlink:href="#CMR17-69" transform="translate(297.5248 0) scale(0.996264)"/>
      <use xlink:href="#CMR17-73" transform="translate(322.395859 0) scale(0.996264)"/>
      <use xlink:href="#CMR17-65" transform="translate(358.197196 0) scale(0.996264)"/>
      <use xlink:href="#CMR17-64" transform="translate(398.682857 0) scale(0.996264)"/>
      <use xlink:href="#CMR17-4c" transform="translate(479.654193 0) scale(0.996264)"/>
      <use xlink:href="#CMR17-6f" transform="translate(537.035601 0) scale(0.996264)"/>
      <use xlink:href="#CMR17-6d" transform="translate(582.726078 0) scale(0.996264)"/>
      <use xlink:href="#CMR17-62" transform="translate(657.043214 0) scale(0.996264)"/>
      <use xlink:href="#CMR17-2d" transform="translate(707.938584 0) scale(0.996264)"/>
      <use xlink:href="#CMR17-53" transform="translate(738.01455 0) scale(0.996264)"/>
      <use xlink:href="#CMR17-63" transform="translate(788.90992 0) scale(0.996264)"/>
      <use xlink:href="#CMR17-61" transform="translate(829.39558 0) scale(0.996264)"/>
      <use xlink:href="#CMR17-72" transform="translate(875.086057 0) scale(0.996264)"/>
      <use xlink:href="#CMR17-67" transform="translate(910.366825 0) scale(0.996264)"/>
      <use xlink:href="#CMR17-6c" transform="translate(956.057302 0) scale(0.996264)"/>
      <use xlink:href="#CMR17-65" transform="translate(980.928361 0) scale(0.996264)"/>
      <use xlink:href="#CMR17-50" transform="translate(1051.489987 0) scale(0.996264)"/>
      <use xlink:href="#CMR17-6f" transform="translate(1111.473834 0) scale(0.996264)"/>
      <use xlink:href="#CMR17-77" transform="translate(1154.561857 0) scale(0.996264)"/>
      <use xlink:href="#CMR17-65" transform="translate(1218.469284 0) scale(0.996264)"/>
      <use xlink:href="#CMR17-72" transform="translate(1258.954944 0) scale(0.996264)"/>
     </g>
    </g>
   </g>
   <g id="line2d_37">
    <path d="M 55.003938 139.187081 
L 55.308606 162.69936 
L 55.613274 172.549682 
L 55.917942 172.647617 
L 56.527279 165.222816 
L 56.831947 172.437739 
L 57.136616 172.498961 
L 57.441284 163.372092 
L 57.745952 172.825854 
L 58.050621 169.973055 
L 58.659957 173.471746 
L 58.964625 172.325712 
L 59.269294 172.896437 
L 59.573962 161.101226 
L 60.183299 173.350524 
L 60.487967 170.483747 
L 60.792635 170.124243 
L 61.097304 173.287756 
L 61.401972 170.919677 
L 61.70664 170.515214 
L 62.011309 172.250721 
L 62.315977 171.384056 
L 62.620645 170.044821 
L 62.925313 173.203648 
L 63.229982 172.129642 
L 63.53465 173.283055 
L 63.839318 171.61598 
L 64.143987 172.719545 
L 64.448655 173.132068 
L 64.753323 170.452632 
L 65.057992 173.153901 
L 65.36266 172.428829 
L 65.667328 170.477656 
L 65.971996 173.3894 
L 66.276665 169.754803 
L 66.581333 173.035158 
L 67.495338 171.281883 
L 67.800006 171.954013 
L 68.104675 167.886944 
L 68.409343 171.715098 
L 68.714011 169.916059 
L 69.01868 173.483339 
L 69.323348 165.346263 
L 69.932684 172.292218 
L 70.237353 171.523152 
L 70.542021 172.958353 
L 70.846689 172.9035 
L 71.151358 169.73835 
L 71.456026 170.764739 
L 71.760694 170.754118 
L 72.065363 172.989421 
L 72.370031 169.128956 
L 72.979367 173.424132 
L 73.284036 172.195856 
L 73.588704 173.318487 
L 73.893372 172.14059 
L 74.198041 173.213311 
L 74.502709 172.259409 
L 74.807377 172.417728 
L 75.112046 172.30551 
L 75.416714 168.983078 
L 75.721382 173.056526 
L 76.026051 172.766899 
L 76.330719 172.704104 
L 76.635387 172.060619 
L 76.940055 171.827914 
L 77.244724 170.19119 
L 77.549392 172.934884 
L 77.85406 172.932931 
L 78.158729 172.646049 
L 78.463397 169.065084 
L 78.768065 172.884459 
L 79.072734 172.004799 
L 79.377402 166.754359 
L 79.68207 170.857563 
L 79.986738 169.775398 
L 80.291407 169.776053 
L 80.596075 172.647812 
L 80.900743 172.789476 
L 81.205412 171.055083 
L 81.51008 168.007357 
L 82.119417 171.956254 
L 82.424085 171.004601 
L 83.033422 172.707427 
L 83.33809 171.184704 
L 83.642758 173.4775 
L 83.947426 172.406568 
L 84.252095 172.605081 
L 84.556763 172.170208 
L 84.861431 172.8117 
L 85.1661 173.084181 
L 85.470768 169.626218 
L 85.775436 172.049723 
L 86.080105 169.402827 
L 86.384773 169.604034 
L 86.689441 170.967169 
L 86.994109 171.011332 
L 87.298778 171.346286 
L 87.603446 171.204327 
L 87.908114 171.577483 
L 88.212783 172.759767 
L 88.517451 173.206134 
L 88.822119 172.066499 
L 89.126788 169.796634 
L 89.431456 173.170305 
L 89.736124 171.331434 
L 90.040793 170.82686 
L 90.345461 172.802152 
L 90.650129 172.716198 
L 90.954797 170.687754 
L 91.259466 173.004425 
L 91.564134 170.618003 
L 91.868802 172.929445 
L 92.173471 173.199548 
L 92.478139 168.582179 
L 92.782807 170.925417 
L 93.392144 172.599774 
L 93.696812 170.947339 
L 94.001481 171.888235 
L 94.306149 173.463047 
L 94.610817 171.206959 
L 94.915485 172.934998 
L 95.220154 166.889166 
L 95.524822 173.053719 
L 95.82949 173.126486 
L 96.134159 171.740779 
L 96.438827 173.473423 
L 96.743495 172.206166 
L 97.048164 169.454735 
L 97.352832 173.057103 
L 97.6575 168.994874 
L 97.962168 168.508915 
L 98.266837 173.130719 
L 98.876173 173.004568 
L 99.180842 167.460618 
L 99.48551 172.801472 
L 99.790178 173.02153 
L 100.094847 169.249016 
L 100.399515 173.303644 
L 100.704183 171.372531 
L 101.008852 166.895053 
L 101.31352 170.191942 
L 101.618188 170.643968 
L 101.922856 173.421734 
L 102.227525 173.316925 
L 102.532193 173.48358 
L 102.836861 172.040688 
L 103.14153 173.029311 
L 103.446198 172.237593 
L 103.750866 170.323458 
L 104.055535 172.92484 
L 104.360203 171.366802 
L 104.664871 173.207801 
L 104.969539 173.452161 
L 105.274208 171.304928 
L 105.578876 172.162786 
L 105.883544 172.127084 
L 106.188213 171.478259 
L 106.492881 171.384952 
L 106.797549 172.542734 
L 107.102218 170.959065 
L 107.406886 173.239635 
L 107.711554 171.923081 
L 108.016223 167.381528 
L 108.320891 171.629454 
L 108.930227 173.374304 
L 109.539564 170.428853 
L 109.844232 173.09866 
L 110.453569 171.648941 
L 110.758237 172.639678 
L 111.062906 169.803727 
L 111.97691 173.150727 
L 112.281579 169.799097 
L 112.586247 172.277796 
L 112.890915 173.509251 
L 113.195584 173.33029 
L 113.500252 171.245182 
L 113.80492 172.316733 
L 114.109589 171.239282 
L 114.414257 173.453629 
L 114.718925 172.764357 
L 115.023594 172.815833 
L 115.328262 172.322364 
L 115.63293 172.883966 
L 115.937598 169.541087 
L 116.242267 170.663949 
L 116.546935 173.260552 
L 116.851603 171.942602 
L 117.156272 171.989408 
L 117.46094 171.301122 
L 118.070277 173.226191 
L 118.374945 170.706455 
L 118.679613 173.06331 
L 118.984281 171.995948 
L 119.28895 173.458327 
L 119.593618 172.714432 
L 119.898286 172.476676 
L 120.202955 172.980463 
L 120.507623 172.859733 
L 120.812291 171.936173 
L 121.11696 173.363013 
L 121.421628 172.778931 
L 121.726296 172.617476 
L 122.030965 172.066178 
L 122.335633 169.554955 
L 122.640301 171.427496 
L 122.944969 172.565808 
L 123.249638 172.514574 
L 123.554306 169.940175 
L 123.858974 170.696968 
L 124.468311 173.511842 
L 124.772979 171.37569 
L 125.077648 173.175196 
L 125.382316 170.714196 
L 125.686984 170.829426 
L 125.991652 171.106185 
L 126.296321 171.1412 
L 126.600989 172.795624 
L 126.905657 172.743068 
L 127.210326 173.402262 
L 127.819662 169.785216 
L 128.124331 169.276964 
L 128.428999 167.365893 
L 128.733667 167.933492 
L 129.038336 171.704138 
L 129.343004 173.233541 
L 129.647672 169.48013 
L 129.95234 170.414868 
L 130.257009 173.233395 
L 130.561677 173.506444 
L 130.866345 172.851842 
L 131.171014 173.335297 
L 131.475682 172.314995 
L 131.78035 172.988031 
L 132.085019 171.508662 
L 132.389687 172.548896 
L 132.999023 171.111378 
L 133.60836 173.344336 
L 133.913028 170.374644 
L 134.217697 173.456101 
L 134.522365 168.471472 
L 134.827033 173.316521 
L 135.43637 173.312961 
L 136.045707 173.140869 
L 136.350375 170.184056 
L 136.959711 172.797319 
L 137.26438 170.238891 
L 137.569048 172.320945 
L 137.873716 173.448944 
L 138.178385 172.382533 
L 138.483053 173.281498 
L 138.787721 172.867237 
L 139.09239 169.220372 
L 139.397058 172.407196 
L 139.701726 172.407888 
L 140.006395 170.454274 
L 140.311063 172.218906 
L 140.615731 168.3604 
L 140.920399 167.958672 
L 141.225068 168.7998 
L 141.529736 172.705357 
L 141.834404 169.18276 
L 142.443741 173.112794 
L 142.748409 171.388736 
L 143.053078 172.82579 
L 143.357746 172.426475 
L 143.662414 172.348265 
L 143.967082 173.350912 
L 144.271751 172.884853 
L 144.576419 168.849978 
L 144.881087 173.450841 
L 145.185756 173.258929 
L 145.490424 172.565449 
L 145.795092 172.200858 
L 146.099761 173.434276 
L 146.404429 173.245524 
L 146.709097 172.188821 
L 147.013766 173.204794 
L 147.318434 173.056959 
L 147.623102 173.515411 
L 147.92777 166.096696 
L 148.232439 172.797302 
L 148.537107 173.005438 
L 148.841775 169.878383 
L 149.146444 172.431938 
L 149.75578 172.891957 
L 150.060449 172.809795 
L 150.365117 172.578751 
L 150.669785 173.336391 
L 150.974453 170.843026 
L 151.279122 173.472312 
L 151.58379 169.617721 
L 151.888458 172.835971 
L 152.193127 172.694747 
L 152.802463 162.433416 
L 153.107132 172.063956 
L 153.4118 167.1232 
L 154.021137 173.0651 
L 154.325805 170.821836 
L 154.630473 172.710728 
L 154.935141 172.720924 
L 155.23981 172.48192 
L 155.544478 172.985261 
L 155.849146 167.943662 
L 156.153815 170.956119 
L 156.458483 167.49835 
L 156.763151 171.294369 
L 157.372488 172.951209 
L 157.677156 171.984681 
L 157.981824 172.877543 
L 158.286493 172.658198 
L 158.591161 168.554482 
L 158.895829 170.910575 
L 159.200498 167.280747 
L 159.505166 172.887627 
L 159.809834 169.334668 
L 160.114503 173.464582 
L 160.419171 173.519899 
L 160.723839 173.384653 
L 161.028508 171.380236 
L 161.333176 172.964926 
L 161.637844 170.034953 
L 161.942512 172.216221 
L 162.247181 172.26168 
L 162.551849 171.076579 
L 162.856517 167.979479 
L 163.161186 168.437475 
L 163.465854 170.560433 
L 163.770522 171.479753 
L 164.075191 171.129138 
L 164.379859 172.896322 
L 164.684527 171.979744 
L 164.989195 172.842053 
L 165.9032 171.632058 
L 166.207869 162.751245 
L 166.512537 169.458669 
L 166.817205 172.317448 
L 167.121874 173.104064 
L 167.426542 168.224144 
L 168.035879 172.255887 
L 168.340547 165.453353 
L 168.645215 171.771566 
L 168.949883 172.965832 
L 169.254552 171.85706 
L 169.55922 171.722505 
L 169.863888 173.51885 
L 170.168557 170.273635 
L 170.473225 170.725667 
L 170.777893 173.019423 
L 171.082562 172.401931 
L 171.38723 171.236356 
L 171.691898 158.589279 
L 171.996566 173.364463 
L 172.301235 167.181374 
L 172.605903 172.251241 
L 172.910571 171.457677 
L 173.21524 172.986173 
L 173.519908 162.122437 
L 173.824576 167.931742 
L 174.129245 167.954402 
L 174.433913 173.413122 
L 174.738581 167.496456 
L 175.04325 172.214088 
L 175.347918 170.886491 
L 175.957254 172.76524 
L 176.261923 172.25224 
L 176.566591 173.112163 
L 177.175928 171.70595 
L 177.480596 173.062278 
L 177.785264 172.725099 
L 178.089933 172.743728 
L 178.699269 173.144418 
L 179.003938 167.562749 
L 179.308606 166.461978 
L 179.613274 171.413072 
L 179.917942 173.217181 
L 180.222611 171.899054 
L 180.527279 172.995757 
L 181.136616 169.525104 
L 181.441284 169.734957 
L 182.050621 172.71606 
L 182.355289 173.03073 
L 182.659957 169.094511 
L 182.964625 172.135326 
L 183.269294 170.636307 
L 183.573962 173.429493 
L 183.87863 171.3556 
L 184.183299 168.298553 
L 184.487967 171.335915 
L 184.792635 171.367826 
L 185.097304 172.963036 
L 185.401972 173.313536 
L 185.70664 173.13955 
L 186.011309 172.749349 
L 186.315977 171.848535 
L 186.620645 166.784068 
L 186.925313 172.858306 
L 187.229982 172.751936 
L 187.53465 172.957156 
L 187.839318 170.811382 
L 188.143987 173.415956 
L 188.753323 173.441023 
L 189.057992 170.739362 
L 189.36266 173.301908 
L 189.667328 170.381862 
L 189.971996 171.931343 
L 190.276665 171.854225 
L 190.581333 169.236784 
L 190.886001 173.455422 
L 191.19067 169.716172 
L 191.495338 172.99428 
L 191.800006 166.452328 
L 192.104675 170.928174 
L 192.409343 171.905321 
L 192.714011 171.87866 
L 193.01868 173.134103 
L 193.323348 171.950267 
L 193.628016 167.94248 
L 193.932684 167.808192 
L 194.237353 162.283641 
L 194.542021 171.396017 
L 194.846689 173.382518 
L 195.151358 173.103768 
L 195.456026 168.709713 
L 195.760694 172.965355 
L 196.065363 173.255078 
L 196.370031 171.471487 
L 196.674699 170.4626 
L 196.979367 157.098578 
L 197.588704 171.564759 
L 197.893372 173.095685 
L 198.502709 166.556696 
L 198.807377 166.442488 
L 199.112046 169.101718 
L 199.416714 167.254936 
L 199.721382 173.205821 
L 200.026051 169.269881 
L 200.330719 168.64381 
L 200.635387 163.669825 
L 200.940055 160.732968 
L 201.244724 167.487465 
L 201.549392 167.872298 
L 201.85406 169.556782 
L 202.158729 168.610911 
L 202.768065 173.469776 
L 203.072734 168.847646 
L 203.377402 169.828904 
L 203.68207 169.18535 
L 203.986738 159.550482 
L 204.291407 143.035872 
L 204.900743 170.635367 
L 205.205412 170.058874 
L 205.51008 173.512854 
L 205.814748 172.929688 
L 206.119417 171.589988 
L 206.424085 171.072183 
L 206.728753 172.859735 
L 207.033422 169.733903 
L 207.33809 172.655424 
L 207.642758 168.810048 
L 207.947426 162.54743 
L 208.556763 171.500706 
L 208.861431 171.735616 
L 209.1661 172.931411 
L 209.470768 169.877386 
L 209.775436 170.875106 
L 210.080105 171.250497 
L 210.384773 170.17338 
L 210.689441 170.614908 
L 210.994109 172.316897 
L 211.298778 170.800341 
L 211.603446 173.068025 
L 211.908114 170.547136 
L 212.212783 162.358264 
L 212.517451 160.049039 
L 213.126788 172.509754 
L 213.431456 172.156066 
L 214.040793 169.450855 
L 214.345461 173.48355 
L 214.954797 164.285437 
L 215.259466 169.145347 
L 215.564134 171.915861 
L 215.868802 171.773004 
L 216.173471 172.968245 
L 216.478139 173.181207 
L 216.782807 170.421254 
L 217.087476 165.698762 
L 217.392144 165.84009 
L 217.696812 171.608642 
L 218.001481 172.69761 
L 218.306149 170.774766 
L 218.915485 173.489307 
L 219.82949 171.807862 
L 220.134159 173.160253 
L 220.438827 172.462193 
L 220.743495 168.293795 
L 221.048164 169.258347 
L 221.352832 172.764574 
L 221.6575 172.813646 
L 221.962168 171.237368 
L 222.266837 167.669218 
L 222.571505 168.877965 
L 222.876173 172.343141 
L 223.180842 171.702667 
L 223.48551 173.04691 
L 223.790178 173.132392 
L 224.094847 171.73013 
L 224.399515 171.575741 
L 224.704183 171.839988 
L 225.008852 172.894762 
L 225.31352 173.192237 
L 225.618188 170.659202 
L 225.922856 171.175128 
L 226.227525 173.210106 
L 226.836861 165.164907 
L 227.14153 166.364328 
L 227.446198 168.155973 
L 228.055535 169.789166 
L 228.664871 170.990343 
L 228.969539 173.104269 
L 229.274208 172.662669 
L 229.578876 169.641413 
L 229.883544 170.590758 
L 230.188213 173.129218 
L 230.492881 173.302674 
L 230.797549 172.605587 
L 231.102218 172.847107 
L 231.406886 173.498077 
L 231.711554 171.234869 
L 232.016223 167.682899 
L 232.320891 168.488336 
L 232.625559 171.390173 
L 232.930227 171.358082 
L 233.234896 170.518498 
L 233.844232 173.205417 
L 234.148901 172.001789 
L 234.453569 171.320014 
L 234.758237 172.729056 
L 235.062906 173.309981 
L 235.672242 170.867264 
L 236.281579 171.330962 
L 236.586247 172.101853 
L 236.890915 173.360417 
L 237.195584 171.415866 
L 237.500252 165.233059 
L 237.80492 162.678552 
L 238.414257 173.101007 
L 238.718925 171.353981 
L 239.023594 165.462211 
L 239.328262 163.832133 
L 239.937598 172.518468 
L 240.242267 173.329628 
L 240.851603 169.983633 
L 241.156272 169.035457 
L 241.46094 168.679069 
L 241.765608 169.270242 
L 242.679613 172.726055 
L 242.984281 172.444351 
L 243.28895 171.134964 
L 243.593618 170.728919 
L 243.898286 171.218102 
L 244.202955 170.956071 
L 244.507623 169.790275 
L 244.812291 170.041499 
L 245.11696 170.654061 
L 245.421628 166.232457 
L 246.030965 144.877173 
L 246.335633 141.392666 
L 246.944969 149.60743 
L 247.249638 148.469527 
L 247.858974 132.354675 
L 248.163643 130.125664 
L 248.468311 136.155567 
L 249.382316 168.383622 
L 249.686984 171.423905 
L 249.991652 171.348354 
L 250.296321 169.452339 
L 250.600989 165.369294 
L 251.210326 149.990443 
L 251.514994 142.170761 
L 251.819662 137.406506 
L 252.124331 135.945138 
L 252.428999 136.546989 
L 253.038336 139.409263 
L 253.343004 142.448563 
L 253.95234 156.364669 
L 254.257009 162.922792 
L 254.561677 166.117334 
L 254.866345 166.20492 
L 255.171014 164.126432 
L 255.475682 158.806638 
L 255.78035 145.64893 
L 256.085019 119.741198 
L 256.999023 21.717455 
L 257.303692 15.119997 
L 257.60836 25.184245 
L 258.827033 110.343542 
L 259.131702 117.569317 
L 259.43637 117.812578 
L 260.045707 113.13109 
L 260.350375 115.164958 
L 260.655043 122.052183 
L 261.873716 162.127511 
L 262.178385 166.344378 
L 262.483053 168.134323 
L 263.397058 169.677973 
L 264.006395 171.627213 
L 264.311063 172.232767 
L 264.615731 172.409581 
L 264.920399 172.22767 
L 265.225068 171.72775 
L 265.529736 170.833957 
L 265.834404 169.403225 
L 266.443741 164.912015 
L 267.053078 160.608705 
L 267.357746 159.887652 
L 267.662414 160.607259 
L 268.271751 165.289478 
L 268.576419 167.570408 
L 268.881087 168.633834 
L 269.185756 167.974866 
L 269.490424 165.257728 
L 269.795092 160.096741 
L 270.404429 141.26554 
L 271.318434 108.130292 
L 271.623102 104.833311 
L 271.92777 108.225553 
L 272.537107 130.614471 
L 273.146444 154.289213 
L 273.451112 161.704623 
L 273.75578 165.967206 
L 274.060449 167.654898 
L 274.365117 167.392653 
L 274.669785 165.666021 
L 275.279122 159.478621 
L 275.888458 153.821335 
L 276.193127 153.225516 
L 276.497795 154.586125 
L 278.021137 167.82552 
L 278.325805 168.844346 
L 278.935141 169.856823 
L 279.849146 170.897542 
L 280.153815 171.082608 
L 280.763151 171.050762 
L 281.372488 170.99133 
L 281.677156 171.171049 
L 282.286493 171.942622 
L 282.895829 172.742721 
L 283.200498 172.940337 
L 283.505166 172.959149 
L 284.419171 172.634823 
L 285.028508 172.834073 
L 285.333176 172.988865 
L 285.637844 172.994478 
L 285.942512 172.677691 
L 286.247181 171.896983 
L 286.856517 168.805613 
L 287.770522 162.753308 
L 288.075191 161.486288 
L 288.379859 160.986049 
L 288.684527 161.335568 
L 288.989195 162.495054 
L 290.512537 170.99333 
L 290.817205 171.275186 
L 291.121874 170.851798 
L 291.426542 169.755328 
L 292.035879 166.078179 
L 292.645215 162.34738 
L 292.949883 161.133533 
L 293.254552 160.413214 
L 293.55922 160.065707 
L 294.168557 159.924383 
L 294.473225 159.869693 
L 294.777893 159.627575 
L 295.082562 159.052633 
L 295.691898 156.771832 
L 296.605903 152.842754 
L 296.910571 152.122228 
L 297.21524 151.789783 
L 297.519908 151.782644 
L 298.129245 152.306361 
L 298.738581 152.735107 
L 299.04325 152.663623 
L 299.347918 152.350534 
L 300.261923 150.779613 
L 300.566591 150.587045 
L 300.871259 150.831107 
L 301.175928 151.575666 
L 301.785264 154.325676 
L 303.003938 160.683389 
L 303.613274 162.774813 
L 305.136616 166.655967 
L 305.441284 167.23174 
L 305.745952 167.458403 
L 306.050621 167.102628 
L 306.355289 165.905795 
L 306.659957 163.606229 
L 306.964625 159.95885 
L 307.573962 147.834265 
L 308.183299 128.66946 
L 309.097304 89.307224 
L 310.011309 49.002978 
L 310.620645 31.008089 
L 310.925313 26.735262 
L 311.229982 26.218787 
L 311.53465 29.596803 
L 311.839318 36.698595 
L 312.448655 59.962287 
L 314.276665 145.526598 
L 314.886001 163.002177 
L 315.19067 168.45901 
L 315.495338 171.759775 
L 315.800006 173.048966 
L 316.104675 172.553365 
L 316.409343 170.564558 
L 317.01868 163.470608 
L 318.237353 146.51851 
L 318.846689 141.221708 
L 319.151358 139.996109 
L 319.456026 139.795622 
L 319.760694 140.588568 
L 320.065363 142.268893 
L 320.674699 147.522633 
L 321.588704 156.097055 
L 321.893372 158.026263 
L 322.198041 159.131179 
L 322.502709 159.295146 
L 322.807377 158.478135 
L 323.112046 156.713921 
L 323.721382 150.791691 
L 325.85406 124.454157 
L 326.463397 120.615589 
L 326.768065 119.712509 
L 327.072734 119.502024 
L 327.377402 119.975823 
L 327.68207 121.112242 
L 328.291407 125.219265 
L 328.900743 131.370597 
L 330.424085 150.834961 
L 331.33809 161.16987 
L 331.947426 166.254115 
L 332.556763 169.696913 
L 333.1661 171.629636 
L 333.470768 172.118971 
L 333.775436 172.34925 
L 334.080105 172.366406 
L 334.384773 172.214652 
L 334.994109 171.561 
L 335.908114 170.133234 
L 337.126788 167.852322 
L 338.040793 165.590575 
L 338.650129 163.55994 
L 339.564134 159.462523 
L 340.478139 154.080753 
L 341.696812 145.356462 
L 343.82949 127.875153 
L 345.048164 118.477377 
L 345.962168 113.245821 
L 346.571505 111.013448 
L 347.180842 109.822873 
L 347.48551 109.590834 
L 347.790178 109.577494 
L 348.094847 109.762895 
L 348.704183 110.649604 
L 349.31352 112.09808 
L 350.227525 115.025118 
L 353.578876 126.969642 
L 354.492881 128.954904 
L 355.102218 129.809567 
L 355.711554 130.308348 
L 356.320891 130.483061 
L 356.930227 130.365583 
L 357.539564 129.977428 
L 358.148901 129.322581 
L 358.758237 128.384317 
L 359.367574 127.126197 
L 359.367574 127.126197 
" clip-path="url(#p2bde905a77)" style="fill: none; stroke: #1f77b4; stroke-width: 0.5; stroke-linecap: square"/>
   </g>
   <g id="line2d_38">
    <path d="M 55.003938 173.511005 
L 58.964625 173.503507 
L 60.487967 173.518639 
L 69.01868 173.50505 
L 72.065363 173.487761 
L 72.370031 173.417232 
L 72.979367 173.499811 
L 73.284036 173.428061 
L 74.198041 173.515534 
L 75.721382 173.494424 
L 76.940055 173.51027 
L 86.384773 173.50932 
L 87.603446 173.500885 
L 88.517451 173.372237 
L 88.822119 173.501405 
L 89.126788 173.395685 
L 89.431456 173.49185 
L 89.736124 173.43644 
L 90.345461 173.515432 
L 90.650129 173.405063 
L 91.259466 173.509167 
L 92.478139 173.481536 
L 93.392144 173.510743 
L 94.306149 173.498985 
L 95.220154 173.47252 
L 95.524822 173.40242 
L 96.438827 173.500849 
L 97.048164 173.451669 
L 98.266837 173.441499 
L 98.571505 173.207605 
L 99.48551 173.44023 
L 99.790178 173.48437 
L 100.094847 173.404446 
L 100.704183 173.50606 
L 101.618188 173.477103 
L 101.922856 173.341896 
L 102.227525 173.514906 
L 105.578876 173.412097 
L 106.188213 173.154238 
L 106.492881 173.260068 
L 106.797549 173.488999 
L 107.102218 173.308757 
L 107.406886 173.462331 
L 107.711554 173.270804 
L 108.016223 173.39052 
L 108.625559 173.312586 
L 109.234896 173.511795 
L 109.844232 173.459015 
L 110.148901 173.174271 
L 110.453569 173.342626 
L 110.758237 173.252224 
L 111.062906 173.441199 
L 111.367574 173.319715 
L 111.672242 173.490041 
L 111.97691 173.416615 
L 112.281579 173.511004 
L 112.890915 173.466631 
L 113.195584 173.516966 
L 113.500252 173.228683 
L 114.109589 173.452754 
L 114.718925 173.360515 
L 115.328262 173.471518 
L 116.242267 173.276671 
L 116.851603 173.509985 
L 117.765608 173.405184 
L 118.070277 173.301594 
L 118.679613 173.361927 
L 119.593618 173.501688 
L 119.898286 173.313834 
L 120.202955 173.284304 
L 120.507623 173.493595 
L 120.812291 173.517954 
L 121.11696 173.328349 
L 121.421628 172.871913 
L 122.030965 173.515544 
L 122.944969 173.202595 
L 123.249638 173.454493 
L 123.858974 173.386589 
L 124.468311 173.463526 
L 125.382316 173.402435 
L 125.686984 173.211101 
L 126.296321 173.455634 
L 126.600989 173.42992 
L 126.905657 173.145758 
L 127.514994 173.481059 
L 128.428999 173.408253 
L 131.171014 173.473763 
L 131.78035 173.494894 
L 132.085019 173.372763 
L 132.694355 173.514238 
L 133.60836 173.517948 
L 134.217697 173.464798 
L 134.522365 173.300676 
L 134.827033 173.417863 
L 135.131702 173.204465 
L 135.43637 173.131048 
L 135.741038 172.854922 
L 136.045707 171.729789 
L 136.350375 173.236343 
L 136.655043 173.456112 
L 136.959711 173.29538 
L 137.26438 172.48312 
L 137.569048 173.123629 
L 137.873716 173.419531 
L 138.178385 173.513547 
L 139.09239 173.471883 
L 139.397058 173.170245 
L 140.006395 173.519815 
L 140.615731 173.519847 
L 140.920399 173.120223 
L 141.225068 173.092849 
L 141.529736 172.920059 
L 141.834404 172.937742 
L 142.139073 173.294438 
L 142.748409 173.515593 
L 143.053078 173.056919 
L 143.357746 173.253669 
L 143.662414 173.043721 
L 143.967082 173.330846 
L 145.490424 173.153279 
L 145.795092 173.421102 
L 146.099761 173.460623 
L 146.709097 173.30966 
L 147.013766 173.437573 
L 147.318434 173.143049 
L 147.623102 173.493619 
L 147.92777 173.415899 
L 148.841775 173.509006 
L 149.146444 173.482017 
L 149.451112 173.184608 
L 149.75578 173.283124 
L 150.060449 172.818223 
L 150.365117 173.386496 
L 150.669785 173.160145 
L 150.974453 173.419454 
L 151.888458 173.513366 
L 152.193127 173.27728 
L 152.802463 173.120128 
L 153.107132 172.817348 
L 153.4118 173.139637 
L 153.716468 173.20463 
L 154.021137 173.49256 
L 154.935141 173.444132 
L 155.544478 173.464195 
L 156.153815 173.143969 
L 156.458483 173.412166 
L 156.763151 172.93889 
L 157.06782 173.385127 
L 158.895829 173.387499 
L 159.200498 172.892085 
L 159.505166 173.443473 
L 159.809834 173.138033 
L 160.114503 173.506158 
L 160.419171 173.423823 
L 160.723839 173.48113 
L 161.333176 173.276463 
L 161.942512 173.517186 
L 162.247181 172.704501 
L 162.551849 172.212115 
L 162.856517 172.09169 
L 163.465854 170.758485 
L 163.770522 171.538521 
L 164.075191 171.327878 
L 164.379859 170.207172 
L 164.684527 173.017065 
L 164.989195 171.91887 
L 165.293864 172.955221 
L 165.598532 173.357132 
L 165.9032 173.394329 
L 166.207869 172.503537 
L 166.512537 172.263675 
L 166.817205 172.377573 
L 167.121874 172.665552 
L 167.426542 173.2345 
L 167.73121 172.785229 
L 168.035879 173.403349 
L 168.340547 172.893052 
L 168.645215 172.695919 
L 168.949883 173.272368 
L 169.254552 173.406422 
L 169.55922 173.271655 
L 169.863888 173.333296 
L 170.168557 173.045735 
L 170.473225 173.342341 
L 171.082562 172.764465 
L 171.38723 173.404326 
L 171.691898 172.24918 
L 171.996566 173.431031 
L 172.301235 170.866472 
L 172.605903 171.564191 
L 172.910571 173.144797 
L 173.21524 171.50457 
L 173.519908 171.810904 
L 173.824576 171.871643 
L 174.433913 173.51902 
L 175.04325 169.52332 
L 175.347918 172.826566 
L 175.652586 172.378153 
L 175.957254 171.277072 
L 176.261923 173.385012 
L 176.566591 172.159025 
L 176.871259 172.035221 
L 177.175928 172.097694 
L 177.480596 171.182622 
L 177.785264 172.787831 
L 178.089933 173.346207 
L 178.394601 172.755836 
L 178.699269 173.080059 
L 179.003938 172.881384 
L 179.308606 173.257414 
L 179.613274 173.274297 
L 179.917942 172.412676 
L 180.527279 173.496727 
L 180.831947 173.101721 
L 181.136616 172.989803 
L 181.441284 173.034515 
L 181.745952 173.25077 
L 182.050621 173.234908 
L 182.355289 173.456505 
L 182.659957 173.293804 
L 182.964625 172.592137 
L 183.269294 172.967804 
L 183.573962 172.909739 
L 183.87863 172.248213 
L 184.487967 173.294745 
L 184.792635 172.96679 
L 185.097304 172.920364 
L 185.70664 171.860191 
L 186.011309 172.873377 
L 186.315977 173.488946 
L 186.620645 173.10132 
L 186.925313 173.244403 
L 187.229982 173.516884 
L 187.53465 173.318655 
L 187.839318 173.437797 
L 188.143987 173.424063 
L 188.448655 172.810437 
L 188.753323 172.665433 
L 189.36266 173.480987 
L 189.667328 173.463279 
L 189.971996 173.135192 
L 190.276665 173.000642 
L 190.581333 173.350667 
L 190.886001 172.950248 
L 191.19067 171.970374 
L 191.495338 172.34608 
L 191.800006 173.423453 
L 192.104675 173.03944 
L 192.409343 172.233723 
L 193.01868 173.45733 
L 193.932684 172.220514 
L 194.237353 171.896676 
L 194.542021 171.919195 
L 195.151358 173.41073 
L 195.456026 173.311883 
L 195.760694 172.956499 
L 196.065363 172.928905 
L 196.674699 173.087015 
L 196.979367 173.053932 
L 197.284036 173.149033 
L 197.893372 173.516052 
L 198.502709 173.36717 
L 199.112046 173.497396 
L 200.026051 173.455294 
L 200.330719 172.863468 
L 200.635387 171.922771 
L 200.940055 171.374576 
L 201.244724 172.028667 
L 201.549392 173.267499 
L 201.85406 173.252762 
L 202.463397 170.384158 
L 202.768065 170.657273 
L 203.377402 173.185433 
L 203.68207 173.165334 
L 204.291407 171.987592 
L 205.205412 171.467476 
L 205.51008 172.06059 
L 205.814748 173.069345 
L 206.119417 173.452781 
L 206.424085 172.6968 
L 206.728753 171.545133 
L 207.033422 171.125556 
L 207.33809 171.567731 
L 207.947426 172.903039 
L 208.556763 173.42082 
L 208.861431 173.384963 
L 209.470768 172.330562 
L 209.775436 172.36273 
L 210.384773 173.502976 
L 210.689441 172.853035 
L 211.298778 170.437805 
L 211.603446 170.743708 
L 212.212783 173.108703 
L 212.517451 172.970747 
L 213.126788 171.145661 
L 213.431456 171.103748 
L 214.040793 172.258207 
L 214.650129 172.708049 
L 215.259466 173.138289 
L 215.564134 172.828852 
L 215.868802 171.653665 
L 216.478139 168.258756 
L 216.782807 167.83779 
L 217.087476 168.814795 
L 217.696812 172.449123 
L 218.001481 173.416599 
L 218.306149 173.416827 
L 218.915485 172.59681 
L 219.220154 172.611656 
L 219.82949 173.143991 
L 221.048164 173.354538 
L 221.352832 173.127341 
L 221.6575 172.060085 
L 222.571505 165.424392 
L 222.876173 164.802195 
L 223.180842 166.066961 
L 223.790178 171.370641 
L 224.094847 172.80341 
L 224.399515 172.41483 
L 225.31352 166.490042 
L 225.618188 166.231951 
L 225.922856 167.34405 
L 226.836861 172.292747 
L 227.14153 172.913153 
L 227.750866 173.182961 
L 228.360203 173.445781 
L 228.664871 173.325266 
L 228.969539 172.863585 
L 229.578876 171.569896 
L 229.883544 171.389609 
L 230.188213 171.753806 
L 230.797549 173.1912 
L 231.102218 173.510171 
L 231.406886 173.23173 
L 232.625559 170.135081 
L 232.930227 170.118861 
L 233.539564 170.856454 
L 234.758237 172.78839 
L 235.062906 173.009008 
L 235.367574 172.588079 
L 235.672242 171.069325 
L 235.97691 168.190443 
L 236.890915 156.998039 
L 237.195584 156.094399 
L 237.500252 157.669427 
L 238.109589 166.126333 
L 238.414257 170.65603 
L 238.718925 173.227288 
L 239.023594 172.261187 
L 239.328262 167.02203 
L 240.546935 130.820932 
L 240.851603 127.527288 
L 241.156272 128.668009 
L 241.46094 134.129592 
L 242.679613 169.699997 
L 242.984281 173.031795 
L 243.28895 173.223553 
L 243.593618 171.381523 
L 244.202955 166.678318 
L 244.507623 165.771986 
L 244.812291 166.389882 
L 245.726296 172.228415 
L 246.030965 172.713089 
L 246.335633 171.839503 
L 247.249638 166.787683 
L 247.554306 166.715016 
L 247.858974 168.029253 
L 248.468311 172.578255 
L 248.772979 173.397104 
L 249.077648 171.274325 
L 249.382316 165.046981 
L 249.686984 154.235543 
L 250.296321 121.244801 
L 251.210326 70.649857 
L 251.514994 62.551656 
L 251.819662 61.589054 
L 252.124331 68.072838 
L 252.428999 81.240279 
L 253.95234 167.445537 
L 254.257009 170.006383 
L 254.561677 163.782119 
L 254.866345 149.3539 
L 255.475682 104.059429 
L 256.389687 36.29389 
L 256.694355 22.562377 
L 256.999023 15.328133 
L 257.303692 15.119997 
L 257.60836 21.953061 
L 257.913028 35.205383 
L 258.522365 75.131644 
L 259.43637 137.274957 
L 260.045707 160.875242 
L 260.350375 166.018936 
L 260.655043 167.40582 
L 260.959711 165.780489 
L 261.26438 161.884156 
L 262.178385 143.73719 
L 262.787721 133.561995 
L 263.09239 130.892344 
L 263.397058 130.183846 
L 263.701726 131.349986 
L 264.006395 134.058404 
L 266.139073 159.201153 
L 266.748409 163.052886 
L 267.357746 165.825829 
L 267.967082 167.739024 
L 268.881087 169.590909 
L 270.404429 172.068344 
L 271.013766 172.791512 
L 271.623102 173.204366 
L 272.232439 173.317468 
L 272.841775 173.196013 
L 273.75578 172.691854 
L 274.669785 171.813681 
L 275.58379 170.518857 
L 277.4118 167.609428 
L 278.021137 166.972152 
L 278.630473 166.581429 
L 280.153815 165.913248 
L 280.763151 165.250176 
L 281.372488 164.078781 
L 281.981824 162.302474 
L 282.591161 159.915954 
L 283.505166 155.408908 
L 285.028508 147.549984 
L 285.637844 145.469871 
L 285.942512 144.895813 
L 286.247181 144.703094 
L 286.551849 144.931975 
L 286.856517 145.607303 
L 287.161186 146.734195 
L 287.770522 150.244299 
L 288.684527 157.639122 
L 289.598532 165.116941 
L 290.207869 168.796668 
L 290.817205 170.841363 
L 291.121874 171.182906 
L 291.426542 171.061127 
L 291.73121 170.478978 
L 292.035879 169.443543 
L 292.645215 166.04936 
L 293.254552 160.957094 
L 294.168557 150.362403 
L 295.082562 136.824088 
L 297.21524 103.509538 
L 297.824576 97.26466 
L 298.129245 95.204624 
L 298.433913 93.926915 
L 298.738581 93.448675 
L 299.04325 93.755265 
L 299.347918 94.802877 
L 299.957254 98.832225 
L 300.566591 104.82775 
L 301.785264 119.731904 
L 303.613274 141.770358 
L 304.831947 153.658797 
L 305.745952 160.7669 
L 306.659957 166.236878 
L 307.269294 168.91935 
L 307.87863 170.784883 
L 308.487967 171.801194 
L 308.792635 171.986518 
L 309.097304 171.958579 
L 309.401972 171.722351 
L 310.011309 170.661151 
L 310.620645 168.908226 
L 311.53465 165.323215 
L 314.886001 150.765154 
L 316.104675 146.914762 
L 317.01868 144.623328 
L 317.932684 142.799724 
L 318.846689 141.436145 
L 319.760694 140.552016 
L 320.370031 140.243283 
L 320.979367 140.167572 
L 321.588704 140.328844 
L 322.198041 140.727328 
L 322.807377 141.359157 
L 323.721382 142.724836 
L 324.635387 144.545439 
L 325.85406 147.536356 
L 330.424085 159.618388 
L 331.642758 161.970113 
L 332.861431 163.840508 
L 334.080105 165.320608 
L 335.603446 166.797619 
L 338.345461 169.030639 
L 343.524822 173.091276 
L 344.438827 173.379903 
L 345.048164 173.395458 
L 345.962168 173.143595 
L 346.876173 172.609495 
L 348.399515 171.37068 
L 350.532193 169.640761 
L 352.055535 168.692079 
L 353.578876 168.000636 
L 355.406886 167.43395 
L 357.539564 167.013533 
L 359.367574 166.778968 
L 359.367574 166.778968 
" clip-path="url(#p2bde905a77)" style="fill: none; stroke: #ff7f0e; stroke-width: 0.5; stroke-linecap: square"/>
   </g>
   <g id="patch_3">
    <path d="M 39.785756 173.52 
L 39.785756 7.2 
" style="fill: none; stroke: #000000; stroke-width: 0.8; stroke-linejoin: miter; stroke-linecap: square"/>
   </g>
   <g id="patch_4">
    <path d="M 374.585756 173.52 
L 374.585756 7.2 
" style="fill: none; stroke: #000000; stroke-width: 0.8; stroke-linejoin: miter; stroke-linecap: square"/>
   </g>
   <g id="patch_5">
    <path d="M 39.785756 173.52 
L 374.585756 173.52 
" style="fill: none; stroke: #000000; stroke-width: 0.8; stroke-linejoin: miter; stroke-linecap: square"/>
   </g>
   <g id="patch_6">
    <path d="M 39.785756 7.2 
L 374.585756 7.2 
" style="fill: none; stroke: #000000; stroke-width: 0.8; stroke-linejoin: miter; stroke-linecap: square"/>
   </g>
   <g id="legend_1">
    <g id="patch_7">
     <path d="M 46.785756 43.074357 
L 121.127067 43.074357 
Q 123.127067 43.074357 123.127067 41.074357 
L 123.127067 14.2 
Q 123.127067 12.2 121.127067 12.2 
L 46.785756 12.2 
Q 44.785756 12.2 44.785756 14.2 
L 44.785756 41.074357 
Q 44.785756 43.074357 46.785756 43.074357 
z
" style="fill: #ffffff; opacity: 0.8; stroke: #cccccc; stroke-linejoin: miter"/>
    </g>
    <g id="line2d_39">
     <path d="M 48.785756 19.7 
L 58.785756 19.7 
L 68.785756 19.7 
" style="fill: none; stroke: #1f77b4; stroke-width: 0.5; stroke-linecap: square"/>
    </g>
    <g id="text_13">
     <!-- ASAS-SN -->
     <g transform="translate(76.785756 23.2) scale(0.1 -0.1)">
      <defs>
       <path id="CMR17-41" d="M 2323 4378 
C 2291 4461 2278 4480 2214 4480 
C 2150 4480 2138 4461 2106 4378 
L 749 566 
C 627 223 371 153 147 153 
L 147 -13 
C 262 0 518 0 640 0 
C 800 0 1056 0 1210 -13 
L 1210 153 
C 909 153 864 361 864 439 
C 864 497 877 530 890 569 
L 1229 1536 
L 2906 1536 
L 3290 442 
C 3322 365 3322 352 3322 327 
C 3322 153 3046 153 2925 153 
L 2925 0 
C 3110 0 3443 0 3642 0 
C 3808 0 4128 0 4282 -13 
L 4282 153 
C 3942 153 3827 153 3744 387 
L 2323 4378 
z
M 2067 3893 
L 2848 1702 
L 1286 1702 
L 2067 3893 
z
" transform="scale(0.015625)"/>
      </defs>
      <use xlink:href="#CMR17-41" transform="scale(0.996264)"/>
      <use xlink:href="#CMR17-53" transform="translate(69.07243 0) scale(0.996264)"/>
      <use xlink:href="#CMR17-41" transform="translate(119.9678 0) scale(0.996264)"/>
      <use xlink:href="#CMR17-53" transform="translate(189.040229 0) scale(0.996264)"/>
      <use xlink:href="#CMR17-2d" transform="translate(239.935599 0) scale(0.996264)"/>
      <use xlink:href="#CMR17-53" transform="translate(270.011566 0) scale(0.996264)"/>
      <use xlink:href="#CMR17-4e" transform="translate(320.906935 0) scale(0.996264)"/>
     </g>
    </g>
    <g id="line2d_40">
     <path d="M 48.785756 33.637178 
L 58.785756 33.637178 
L 68.785756 33.637178 
" style="fill: none; stroke: #ff7f0e; stroke-width: 0.5; stroke-linecap: square"/>
    </g>
    <g id="text_14">
     <!-- TESS -->
     <g transform="translate(76.785756 37.137178) scale(0.1 -0.1)">
      <defs>
       <path id="CMR17-54" d="M 3981 4326 
L 288 4326 
L 179 2918 
L 294 2918 
C 378 3976 467 4160 1453 4160 
C 1568 4160 1754 4160 1805 4154 
C 1926 4135 1926 4058 1926 3912 
L 1926 459 
C 1926 230 1907 160 1376 160 
L 1197 160 
L 1197 0 
C 1504 0 1824 0 2138 0 
C 2451 0 2771 0 3078 0 
L 3078 160 
L 2899 160 
C 2368 160 2349 230 2349 459 
L 2349 3912 
C 2349 4052 2349 4129 2464 4154 
C 2515 4160 2701 4160 2816 4160 
C 3795 4160 3891 3976 3974 2918 
L 4090 2918 
L 3981 4326 
z
" transform="scale(0.015625)"/>
       <path id="CMR17-45" d="M 3885 1615 
L 3770 1615 
C 3629 676 3546 166 2419 166 
L 1530 166 
C 1274 166 1261 197 1261 414 
L 1261 2176 
L 1862 2176 
C 2464 2176 2522 1960 2522 1430 
L 2637 1430 
L 2637 3081 
L 2522 3081 
C 2522 2557 2464 2342 1862 2342 
L 1261 2342 
L 1261 3913 
C 1261 4128 1274 4160 1530 4160 
L 2406 4160 
C 3398 4160 3514 3769 3603 2929 
L 3718 2929 
L 3565 4325 
L 326 4325 
L 326 4160 
C 768 4160 838 4160 838 3874 
L 838 451 
C 838 166 768 166 326 166 
L 326 0 
L 3654 0 
L 3885 1615 
z
" transform="scale(0.015625)"/>
      </defs>
      <use xlink:href="#CMR17-54" transform="scale(0.996264)"/>
      <use xlink:href="#CMR17-45" transform="translate(66.509881 0) scale(0.996264)"/>
      <use xlink:href="#CMR17-53" transform="translate(129.096181 0) scale(0.996264)"/>
      <use xlink:href="#CMR17-53" transform="translate(179.991551 0) scale(0.996264)"/>
     </g>
    </g>
   </g>
  </g>
 </g>
 <defs>
  <clipPath id="p2bde905a77">
   <rect x="39.785756" y="7.2" width="334.8" height="166.32"/>
  </clipPath>
 </defs>
</svg>
